<svg width="60" height="60" viewBox="0 0 60 60" fill="none" xmlns="http://www.w3.org/2000/svg">
<mask id="mask0_30_8898" style="mask-type:alpha" maskUnits="userSpaceOnUse" x="0" y="0" width="60" height="60">
<rect width="60" height="60" fill="#D9D9D9"/>
</mask>
<g mask="url(#mask0_30_8898)">
<path d="M13.6103 12.6187L10.6962 26.0773C9.22724 25.1184 8.06407 24.1589 7.23578 23.2718C7.68169 21.6247 8.29326 20.0733 9.05445 18.6215C10.2467 16.3534 11.794 14.334 13.6103 12.6187Z" fill="url(#paint0_linear_30_8898)"/>
<path d="M6.76553 33.0493C7.44538 33.4869 8.1656 33.9114 8.91077 34.3259L8.14185 37.8771C7.51485 36.3334 7.0446 34.7196 6.76553 33.0493Z" fill="url(#paint1_linear_30_8898)"/>
<path d="M18.887 16.3986L16.1546 29.0171C14.7961 28.4103 13.5676 27.7862 12.459 27.1586L15.7277 12.063C15.7657 12.6449 15.7449 13.393 15.711 14.3768C15.6831 15.4361 16.4069 16.3606 17.4389 16.5838C17.9436 16.6937 18.4518 16.6177 18.887 16.3986Z" fill="url(#paint2_linear_30_8898)"/>
<path d="M10.7039 35.2657C11.8855 35.8643 13.1336 36.4325 14.4333 36.9675L12.7061 44.9458C11.4811 43.6526 10.4183 42.2299 9.52829 40.6962L10.7039 35.2657Z" fill="url(#paint3_linear_30_8898)"/>
<path d="M27.1278 6.48523L26.8291 7.86571C26.6783 7.73627 26.5002 7.63058 26.3084 7.55161C25.6582 7.28442 25.1262 7.05701 24.6928 6.8587C25.4979 6.68354 26.3072 6.56064 27.1278 6.48523Z" fill="url(#paint4_linear_30_8898)"/>
<path d="M25.3993 11.7513C25.6066 11.759 25.8126 11.7365 26.0032 11.6807L21.7822 31.1742C20.4397 30.7343 19.1756 30.2747 17.9833 29.7932L21.8238 12.0577C22.5054 11.6611 23.4904 11.6884 25.3993 11.7513Z" fill="url(#paint5_linear_30_8898)"/>
<path d="M16.2716 37.7002C17.5042 38.1681 18.7778 38.6152 20.0829 39.0249L17.9115 49.0528C16.6391 48.3225 15.451 47.477 14.3591 46.5329L16.2716 37.7002Z" fill="url(#paint6_linear_30_8898)"/>
<path d="M33.1716 6.72107L27.5333 32.7626C26.1843 32.4556 24.8941 32.1166 23.6543 31.7514L29.1466 6.38619C30.4748 6.3755 31.8214 6.48832 33.1716 6.72107Z" fill="url(#paint7_linear_30_8898)"/>
<path d="M21.958 39.5872C23.2262 39.9588 24.5248 40.2919 25.8399 40.5841L23.5118 51.3382C22.186 50.9914 20.9135 50.5372 19.7082 49.9785L21.958 39.5872Z" fill="url(#paint8_linear_30_8898)"/>
<path d="M38.8752 8.49274L33.383 33.858C32.1034 33.6775 30.7883 33.4524 29.4333 33.174L35.0716 7.13245C36.3975 7.4792 37.6705 7.93342 38.8752 8.49274Z" fill="url(#paint9_linear_30_8898)"/>
<path d="M27.74 40.9955C29.0581 41.2734 30.3798 41.5002 31.6866 41.6937L29.4369 52.0851C28.1087 52.0957 26.762 51.9829 25.4118 51.7502L27.74 40.9955Z" fill="url(#paint10_linear_30_8898)"/>
<path d="M44.2244 11.9376L39.3562 34.4208C38.0713 34.3661 36.7306 34.2622 35.3264 34.1073L40.6719 9.41772C41.9444 10.148 43.1325 10.9936 44.2244 11.9376Z" fill="url(#paint11_linear_30_8898)"/>
<path d="M33.6264 41.9574C34.9838 42.1242 36.3286 42.2442 37.6444 42.3279L35.7319 51.16C34.3473 51.5679 32.9157 51.8464 31.4551 51.9847L33.6264 41.9574Z" fill="url(#paint12_linear_30_8898)"/>
<path d="M49.0552 17.7749L45.4754 34.3081C44.2066 34.4209 42.8302 34.4803 41.3423 34.4714L45.8792 13.5183C47.097 14.8103 48.1651 16.2413 49.0552 17.7749Z" fill="url(#paint13_linear_30_8898)"/>
<path d="M39.6222 42.4135C41.0252 42.4716 42.3968 42.4704 43.7197 42.414L42.5441 47.8445C41.0994 48.8729 39.5349 49.7339 37.8914 50.406L39.6222 42.4135Z" fill="url(#paint14_linear_30_8898)"/>
<path d="M45.7432 42.2935C46.5982 42.2329 47.4241 42.1356 48.2316 42.0198C47.287 43.4246 46.1897 44.7071 44.9731 45.8519L45.7432 42.2935Z" fill="url(#paint15_linear_30_8898)"/>
<path d="M51.8405 32.9216C50.7177 33.3937 49.263 33.779 47.5274 34.0515L50.4416 20.5929C51.3862 22.9062 51.9669 25.3863 52.1047 27.9495C52.1991 29.5794 52.1142 31.2449 51.8405 32.9216Z" fill="url(#paint16_linear_30_8898)"/>
<path d="M52.7032 21.0904C53.3332 22.896 53.7607 24.7764 53.9596 26.712C55.7622 28.5028 56.5977 30.2188 56.2913 31.6355C56.049 32.7529 55.0812 33.7504 53.5054 34.5567C52.8778 34.875 52.1587 35.1665 51.3506 35.4236C51.3346 35.4278 51.312 35.4302 51.296 35.4343C46.2604 37.0113 37.8801 37.2459 28.0155 35.1101C24.1721 34.2777 20.6855 33.2101 17.6295 32.0119C11.537 29.6274 7.1396 26.7085 5.0377 24.0627C3.93688 22.6769 3.46781 21.3682 3.70947 20.2508C4.01585 18.8347 5.48658 17.6181 7.86873 16.7328C8.8508 15.0531 10.0175 13.5176 11.338 12.1342C5.40108 13.0913 1.02629 15.4372 0.151095 19.4801C-0.547162 22.7042 1.22104 25.8588 4.49738 28.6916C9.32461 32.8586 17.4098 36.3303 25.7051 38.3128C26.2146 38.4381 26.7323 38.5575 27.2448 38.6685C36.0697 40.5792 45.5888 40.9046 52.0821 38.9945C56.2366 37.7707 59.1514 35.6297 59.8491 32.4062C60.7254 28.3633 57.7127 24.4178 52.7032 21.0904Z" fill="url(#paint17_linear_30_8898)"/>
<path d="M25.4694 9.5686C20.6143 9.41897 19.7658 9.96523 17.8937 14.4475C18.0017 11.1254 17.7791 9.67667 16.1884 8.49034C15.4557 7.95181 14.4362 7.46255 13.0219 6.87354C17.8759 7.03029 18.7243 6.48404 20.5893 2C20.521 4.41421 20.6083 5.83387 21.2816 6.88838C21.9603 7.9518 23.2131 8.63284 25.4694 9.5686Z" fill="url(#paint18_linear_30_8898)"/>
<path d="M50.0485 11.6212C49.906 12.2785 49.2576 12.6959 48.6003 12.554C47.9431 12.4115 47.5256 11.7632 47.6676 11.1059C47.8101 10.4486 48.4584 10.0312 49.1157 10.1731C49.773 10.3156 50.191 10.964 50.0485 11.6212Z" fill="url(#paint19_linear_30_8898)"/>
<path d="M3.84425 35.4165C3.63703 36.3742 2.69236 36.9822 1.73463 36.775C0.7769 36.5678 0.168898 35.6231 0.376119 34.6654C0.583339 33.7077 1.528 33.0997 2.48573 33.3069C3.44346 33.5147 4.05206 34.4594 3.84425 35.4165Z" fill="url(#paint20_linear_30_8898)"/>
<path d="M53.6022 47.5844C53.3201 48.8865 52.0364 49.7136 50.7343 49.4316C49.4322 49.1495 48.6051 47.8658 48.8871 46.5637C49.1692 45.2616 50.4529 44.4345 51.755 44.7165C53.0571 44.9986 53.8836 46.2823 53.6022 47.5844Z" fill="url(#paint21_linear_30_8898)"/>
<path d="M25.5009 56.0953C25.3287 56.8915 24.5432 57.3974 23.7463 57.2252C22.9501 57.053 22.4442 56.2675 22.6164 55.4707C22.7886 54.6745 23.5742 54.1686 24.371 54.3408C25.1678 54.513 25.6731 55.2985 25.5009 56.0953Z" fill="url(#paint22_linear_30_8898)"/>
<path d="M25.7057 38.3122C17.4098 36.3297 9.32519 32.858 4.49796 28.691C1.22221 25.8582 -0.545997 22.7036 0.151666 19.4795C1.02686 15.4372 5.40165 13.0907 11.3386 12.1335C10.0181 13.5164 8.85137 15.0519 7.8693 16.7322C5.48715 17.6175 4.01702 18.8335 3.71005 20.2502C3.4678 21.3676 3.93746 22.6763 5.03828 24.0621C7.14018 26.7079 11.5375 29.6268 17.6301 32.0113C19.3205 33.6667 22.0464 36.0447 25.7057 38.3122Z" fill="url(#paint23_linear_30_8898)"/>
<path d="M51.3512 35.4237C52.1593 35.1666 52.8784 34.8751 53.506 34.5568C55.0812 33.7505 56.0496 32.753 56.2919 31.6356C56.5982 30.2194 55.7628 28.5035 53.9602 26.7121C53.7607 24.7765 53.3338 22.8955 52.7038 21.0905C52.7038 21.0905 64.7493 32.2822 51.3512 35.4237Z" fill="url(#paint24_linear_30_8898)"/>
<path d="M21.2811 6.88838C18.5498 6.90798 17.025 7.68818 16.1878 8.49034C15.4551 7.95181 14.4357 7.46255 13.0213 6.87354C17.8753 7.03029 18.7238 6.48404 20.5887 2C20.5205 4.41421 20.6083 5.83387 21.2811 6.88838Z" fill="url(#paint25_linear_30_8898)"/>
</g>
<defs>
<linearGradient id="paint0_linear_30_8898" x1="8.75379" y1="25.6565" x2="11.6675" y2="12.198" gradientUnits="userSpaceOnUse">
<stop stop-color="#4F93FF"/>
<stop offset="0.2278" stop-color="#457BFF"/>
<stop offset="0.7061" stop-color="#2B3EFF"/>
<stop offset="1" stop-color="#1A15FF"/>
</linearGradient>
<linearGradient id="paint1_linear_30_8898" x1="6.98519" y1="37.6271" x2="7.92203" y2="33.2998" gradientUnits="userSpaceOnUse">
<stop stop-color="#4F93FF"/>
<stop offset="0.2278" stop-color="#457BFF"/>
<stop offset="0.7061" stop-color="#2B3EFF"/>
<stop offset="1" stop-color="#1A15FF"/>
</linearGradient>
<linearGradient id="paint2_linear_30_8898" x1="14.1976" y1="28.5936" x2="17.6845" y2="12.4874" gradientUnits="userSpaceOnUse">
<stop stop-color="#4F93FF"/>
<stop offset="0.2278" stop-color="#457BFF"/>
<stop offset="0.7061" stop-color="#2B3EFF"/>
<stop offset="1" stop-color="#1A15FF"/>
</linearGradient>
<linearGradient id="paint3_linear_30_8898" x1="10.7489" y1="44.5217" x2="12.6611" y2="35.6892" gradientUnits="userSpaceOnUse">
<stop stop-color="#4F93FF"/>
<stop offset="0.2278" stop-color="#457BFF"/>
<stop offset="0.7061" stop-color="#2B3EFF"/>
<stop offset="1" stop-color="#1A15FF"/>
</linearGradient>
<linearGradient id="paint4_linear_30_8898" x1="25.7046" y1="7.62264" x2="26.0035" y2="6.2419" gradientUnits="userSpaceOnUse">
<stop stop-color="#4F93FF"/>
<stop offset="0.2278" stop-color="#457BFF"/>
<stop offset="0.7061" stop-color="#2B3EFF"/>
<stop offset="1" stop-color="#1A15FF"/>
</linearGradient>
<linearGradient id="paint5_linear_30_8898" x1="19.8254" y1="30.7511" x2="24.0457" y2="11.2571" gradientUnits="userSpaceOnUse">
<stop stop-color="#4F93FF"/>
<stop offset="0.2278" stop-color="#457BFF"/>
<stop offset="0.7061" stop-color="#2B3EFF"/>
<stop offset="1" stop-color="#1A15FF"/>
</linearGradient>
<linearGradient id="paint6_linear_30_8898" x1="15.9544" y1="48.6292" x2="18.2286" y2="38.1242" gradientUnits="userSpaceOnUse">
<stop stop-color="#4F93FF"/>
<stop offset="0.2278" stop-color="#457BFF"/>
<stop offset="0.7061" stop-color="#2B3EFF"/>
<stop offset="1" stop-color="#1A15FF"/>
</linearGradient>
<linearGradient id="paint7_linear_30_8898" x1="25.5764" y1="32.339" x2="31.2143" y2="6.29732" gradientUnits="userSpaceOnUse">
<stop stop-color="#4F93FF"/>
<stop offset="0.2278" stop-color="#457BFF"/>
<stop offset="0.7061" stop-color="#2B3EFF"/>
<stop offset="1" stop-color="#1A15FF"/>
</linearGradient>
<linearGradient id="paint8_linear_30_8898" x1="21.5543" y1="50.9146" x2="23.9148" y2="40.011" gradientUnits="userSpaceOnUse">
<stop stop-color="#4F93FF"/>
<stop offset="0.2278" stop-color="#457BFF"/>
<stop offset="0.7061" stop-color="#2B3EFF"/>
<stop offset="1" stop-color="#1A15FF"/>
</linearGradient>
<linearGradient id="paint9_linear_30_8898" x1="31.3911" y1="33.5978" x2="37.0289" y2="7.55617" gradientUnits="userSpaceOnUse">
<stop stop-color="#4F93FF"/>
<stop offset="0.2278" stop-color="#457BFF"/>
<stop offset="0.7061" stop-color="#2B3EFF"/>
<stop offset="1" stop-color="#1A15FF"/>
</linearGradient>
<linearGradient id="paint10_linear_30_8898" x1="27.3689" y1="52.1734" x2="29.7295" y2="41.27" gradientUnits="userSpaceOnUse">
<stop stop-color="#4F93FF"/>
<stop offset="0.2278" stop-color="#457BFF"/>
<stop offset="0.7061" stop-color="#2B3EFF"/>
<stop offset="1" stop-color="#1A15FF"/>
</linearGradient>
<linearGradient id="paint11_linear_30_8898" x1="37.2838" y1="34.5309" x2="42.6288" y2="9.84146" gradientUnits="userSpaceOnUse">
<stop stop-color="#4F93FF"/>
<stop offset="0.2278" stop-color="#457BFF"/>
<stop offset="0.7061" stop-color="#2B3EFF"/>
<stop offset="1" stop-color="#1A15FF"/>
</linearGradient>
<linearGradient id="paint12_linear_30_8898" x1="33.4126" y1="52.4091" x2="35.6868" y2="41.9043" gradientUnits="userSpaceOnUse">
<stop stop-color="#4F93FF"/>
<stop offset="0.2278" stop-color="#457BFF"/>
<stop offset="0.7061" stop-color="#2B3EFF"/>
<stop offset="1" stop-color="#1A15FF"/>
</linearGradient>
<linearGradient id="paint13_linear_30_8898" x1="43.2996" y1="34.8947" x2="47.8358" y2="13.9418" gradientUnits="userSpaceOnUse">
<stop stop-color="#4F93FF"/>
<stop offset="0.2278" stop-color="#457BFF"/>
<stop offset="0.7061" stop-color="#2B3EFF"/>
<stop offset="1" stop-color="#1A15FF"/>
</linearGradient>
<linearGradient id="paint14_linear_30_8898" x1="39.8492" y1="50.8299" x2="41.7629" y2="41.9906" gradientUnits="userSpaceOnUse">
<stop stop-color="#4F93FF"/>
<stop offset="0.2278" stop-color="#457BFF"/>
<stop offset="0.7061" stop-color="#2B3EFF"/>
<stop offset="1" stop-color="#1A15FF"/>
</linearGradient>
<linearGradient id="paint15_linear_30_8898" x1="46.1328" y1="46.1032" x2="47.0712" y2="41.7689" gradientUnits="userSpaceOnUse">
<stop stop-color="#4F93FF"/>
<stop offset="0.2278" stop-color="#457BFF"/>
<stop offset="0.7061" stop-color="#2B3EFF"/>
<stop offset="1" stop-color="#1A15FF"/>
</linearGradient>
<linearGradient id="paint16_linear_30_8898" x1="49.4706" y1="34.4725" x2="52.3843" y2="21.0139" gradientUnits="userSpaceOnUse">
<stop stop-color="#4F93FF"/>
<stop offset="0.2278" stop-color="#457BFF"/>
<stop offset="0.7061" stop-color="#2B3EFF"/>
<stop offset="1" stop-color="#1A15FF"/>
</linearGradient>
<linearGradient id="paint17_linear_30_8898" x1="27.2458" y1="38.6683" x2="32.0209" y2="16.6118" gradientUnits="userSpaceOnUse">
<stop stop-color="#9E1FFF"/>
<stop offset="1" stop-color="#2A4CF6"/>
</linearGradient>
<linearGradient id="paint18_linear_30_8898" x1="17.8974" y1="14.4484" x2="20.5923" y2="2.00059" gradientUnits="userSpaceOnUse">
<stop stop-color="#4F93FF"/>
<stop offset="0.2278" stop-color="#457BFF"/>
<stop offset="0.7061" stop-color="#2B3EFF"/>
<stop offset="1" stop-color="#1A15FF"/>
</linearGradient>
<linearGradient id="paint19_linear_30_8898" x1="48.6004" y1="12.554" x2="49.1159" y2="10.1733" gradientUnits="userSpaceOnUse">
<stop stop-color="#4F93FF"/>
<stop offset="0.2278" stop-color="#457BFF"/>
<stop offset="0.7061" stop-color="#2B3EFF"/>
<stop offset="1" stop-color="#1A15FF"/>
</linearGradient>
<linearGradient id="paint20_linear_30_8898" x1="1.73517" y1="36.7752" x2="2.48594" y2="33.3073" gradientUnits="userSpaceOnUse">
<stop stop-color="#4F93FF"/>
<stop offset="0.2278" stop-color="#457BFF"/>
<stop offset="0.7061" stop-color="#2B3EFF"/>
<stop offset="1" stop-color="#1A15FF"/>
</linearGradient>
<linearGradient id="paint21_linear_30_8898" x1="50.7339" y1="49.4314" x2="51.7547" y2="44.7163" gradientUnits="userSpaceOnUse">
<stop stop-color="#4F93FF"/>
<stop offset="0.2278" stop-color="#457BFF"/>
<stop offset="0.7061" stop-color="#2B3EFF"/>
<stop offset="1" stop-color="#1A15FF"/>
</linearGradient>
<linearGradient id="paint22_linear_30_8898" x1="23.7465" y1="57.2249" x2="24.3709" y2="54.3408" gradientUnits="userSpaceOnUse">
<stop stop-color="#4F93FF"/>
<stop offset="0.2278" stop-color="#457BFF"/>
<stop offset="0.7061" stop-color="#2B3EFF"/>
<stop offset="1" stop-color="#1A15FF"/>
</linearGradient>
<linearGradient id="paint23_linear_30_8898" x1="-3.05633" y1="13.414" x2="27.3924" y2="33.231" gradientUnits="userSpaceOnUse">
<stop stop-color="#EEC32D" stop-opacity="0"/>
<stop offset="0.3572" stop-color="#F1CC45" stop-opacity="0.3572"/>
<stop offset="1" stop-color="#F6E079"/>
</linearGradient>
<linearGradient id="paint24_linear_30_8898" x1="47.8207" y1="25.5194" x2="56.9959" y2="31.4908" gradientUnits="userSpaceOnUse">
<stop offset="0.005" stop-color="#1A15FF"/>
<stop offset="1" stop-color="#260750"/>
</linearGradient>
<linearGradient id="paint25_linear_30_8898" x1="16.7756" y1="8.61747" x2="18.3148" y2="1.50753" gradientUnits="userSpaceOnUse">
<stop stop-color="#4F93FF"/>
<stop offset="0.2278" stop-color="#457BFF"/>
<stop offset="0.7061" stop-color="#2B3EFF"/>
<stop offset="1" stop-color="#1A15FF"/>
</linearGradient>
</defs>
</svg>
