<svg width="188" height="162" viewBox="0 0 188 162" fill="none" xmlns="http://www.w3.org/2000/svg">
<path d="M94 0L188 162H0L94 0Z" fill="#F3E0F5"/>
<path d="M123.145 89.5073C121.378 90.0064 119.529 88.9682 119.048 87.1987L117.407 81.3378L105.434 89.0696C104.54 89.6515 103.438 89.7769 102.44 89.3819C101.442 89.0083 100.694 88.1969 100.403 87.1801L98.7807 81.3378L87.1202 88.9655C86.2261 89.5474 85.1238 89.6942 84.1283 89.3179C83.1302 88.9442 82.3829 88.1115 82.092 87.0946L80.5547 81.6474L68.9342 90.1906C68.3524 90.6283 67.6452 90.8552 66.9593 90.8552C65.9397 90.8552 64.9415 90.3774 64.277 89.4833C63.1961 88.0074 63.5083 85.9283 64.9842 84.8261L80.4693 73.4352C81.342 72.7893 82.487 72.6238 83.5252 72.9574C84.5447 73.3311 85.3534 74.1638 85.6443 75.2233L87.2643 80.9188L98.9461 73.2484C99.8189 72.6665 100.942 72.5411 101.941 72.9174C102.939 73.291 103.686 74.1238 103.977 75.1406L105.618 81.0229L117.591 73.291C118.464 72.7092 119.587 72.5838 120.564 72.9788C121.562 73.3524 122.31 74.1638 122.601 75.1833L125.448 85.4106C125.95 87.18 124.912 89.0296 123.145 89.5073Z" fill="#111111"/>
<path d="M64.0049 65.438C62.9027 63.9621 63.2363 61.883 64.7122 60.7808L80.1785 49.3899C81.0726 48.744 82.2149 48.5785 83.2344 48.9121C84.2726 49.2858 85.0653 50.1185 85.3749 51.178L86.9762 56.8735L98.658 49.203C99.5521 48.6212 100.673 48.5171 101.653 48.8694C102.651 49.2431 103.419 50.0758 103.689 51.0926L105.33 56.9749L117.303 49.2431C118.197 48.6612 119.299 48.5572 120.298 48.9308C121.296 49.3045 122.043 50.1158 122.334 51.1353L125.182 61.3626C125.681 63.1294 124.643 64.979 122.873 65.4781C121.106 65.9772 119.257 64.9389 118.758 63.1508L117.116 57.2872L105.144 65.019C104.249 65.6009 103.147 65.7263 102.149 65.3313C101.172 64.9576 100.425 64.1463 100.134 63.1294L98.4926 57.2872L86.8535 64.9363C85.9594 65.5181 84.8358 65.6435 83.859 65.2699C82.8608 64.8962 82.0921 64.0635 81.8012 63.0467L80.2639 57.5994L68.6648 66.164C68.0617 66.6017 67.3758 66.8072 66.6898 66.8072C65.6676 66.8099 64.6481 66.3321 64.0049 65.438Z" fill="#111111"/>
</svg>
