<svg width="217" height="217" viewBox="0 0 217 217" fill="none" xmlns="http://www.w3.org/2000/svg">
<path d="M108.5 0L202.464 162.75H14.5362L108.5 0Z" fill="#F3E0F5"/>
<path d="M137.681 89.5073C135.915 90.0064 134.065 88.9682 133.585 87.1987L131.943 81.3378L119.97 89.0696C119.076 89.6515 117.974 89.7769 116.976 89.3819C115.978 89.0083 115.231 88.1969 114.94 87.1801L113.317 81.3378L101.656 88.9655C100.762 89.5474 99.6601 89.6942 98.6646 89.3179C97.6664 88.9442 96.9191 88.1115 96.6282 87.0946L95.0909 81.6474L83.4705 90.1906C82.8887 90.6283 82.1814 90.8552 81.4955 90.8552C80.476 90.8552 79.4778 90.3774 78.8132 89.4833C77.7323 88.0074 78.0446 85.9283 79.5205 84.8261L95.0055 73.4352C95.8782 72.7893 97.0232 72.6238 98.0614 72.9574C99.0809 73.3311 99.8896 74.1638 100.181 75.2233L101.801 80.9188L113.482 73.2484C114.355 72.6665 115.479 72.5411 116.477 72.9174C117.475 73.291 118.222 74.1238 118.513 75.1406L120.155 81.0229L132.127 73.291C133 72.7092 134.124 72.5838 135.101 72.9788C136.099 73.3524 136.846 74.1638 137.137 75.1833L139.985 85.4106C140.486 87.18 139.448 89.0296 137.681 89.5073Z" fill="#111111"/>
<path d="M78.5412 65.438C77.4389 63.9621 77.7725 61.883 79.2484 60.7808L94.7148 49.3899C95.6089 48.744 96.7512 48.5785 97.7707 48.9121C98.8089 49.2858 99.6016 50.1185 99.9112 51.178L101.512 56.8735L113.194 49.203C114.088 48.6212 115.209 48.5171 116.189 48.8694C117.187 49.2431 117.956 50.0758 118.225 51.0926L119.867 56.9749L131.839 49.2431C132.733 48.6612 133.836 48.5572 134.834 48.9308C135.832 49.3045 136.579 50.1158 136.87 51.1353L139.718 61.3626C140.217 63.1294 139.179 64.979 137.409 65.4781C135.643 65.9772 133.793 64.9389 133.294 63.1508L131.652 57.2872L119.68 65.019C118.786 65.6009 117.683 65.7263 116.685 65.3313C115.708 64.9576 114.961 64.1463 114.67 63.1294L113.029 57.2872L101.39 64.9363C100.496 65.5181 99.372 65.6435 98.3952 65.2699C97.397 64.8962 96.6284 64.0635 96.3375 63.0467L94.8002 57.5994L83.2011 66.164C82.5979 66.6017 81.912 66.8072 81.2261 66.8072C80.2039 66.8099 79.1844 66.3321 78.5412 65.438Z" fill="#111111"/>
</svg>
