<svg width="188" height="162" viewBox="0 0 188 162" fill="none" xmlns="http://www.w3.org/2000/svg">
<path d="M94 0L188 162H0L94 0Z" fill="#F6CCCC"/>
<g clip-path="url(#clip0_152_4967)">
<path d="M70.5094 74.6442C69.9393 74.6442 69.3692 74.4395 68.9161 74.0229C65.4517 70.8729 63.4637 66.3707 63.4637 61.6858C63.4637 52.4841 70.9479 45 80.1496 45C89.3513 45 96.8354 52.4841 96.8354 61.6858C96.8354 62.9941 95.7756 64.0538 94.4674 64.0538C93.1591 64.0538 92.0993 62.9941 92.0993 61.6858C92.0993 55.1006 86.742 49.7434 80.1496 49.7434C73.5571 49.7434 68.1998 55.1006 68.1998 61.6858C68.1998 65.0405 69.625 68.2636 72.1027 70.522C73.0674 71.4064 73.1405 72.9047 72.2561 73.8694C71.7957 74.3811 71.1525 74.6442 70.5094 74.6442Z" fill="#111111" stroke="#111111" stroke-width="2"/>
<path d="M118.425 74.6442C117.782 74.6442 117.139 74.3811 116.671 73.8694C115.787 72.9047 115.86 71.4064 116.825 70.522C119.302 68.2636 120.728 65.0405 120.728 61.6858C120.728 55.1006 115.37 49.7434 108.778 49.7434C102.193 49.7434 96.8281 55.1006 96.8281 61.6858C96.8281 62.9941 95.7684 64.0538 94.4601 64.0538C93.1519 64.0538 92.0921 62.9941 92.0921 61.6858C92.0921 52.4841 99.5762 45 108.778 45C117.98 45 125.464 52.4841 125.464 61.6858C125.464 66.3707 123.476 70.8729 120.011 74.0229C119.566 74.4395 118.996 74.6442 118.425 74.6442Z" fill="#111111" stroke="#111111" stroke-width="2"/>
<path d="M94.4674 95.0062C93.1592 95.0062 92.0994 93.9464 92.0994 92.6382V61.6711C92.0994 60.3629 93.1592 59.3031 94.4674 59.3031C95.7757 59.3031 96.8355 60.3629 96.8355 61.6711V92.6309C96.8355 93.9464 95.7757 95.0062 94.4674 95.0062Z" fill="#111111" stroke="#111111" stroke-width="2"/>
</g>
<defs>
<clipPath id="clip0_152_4967">
<rect width="80" height="80" fill="white" transform="translate(54.4637 30)"/>
</clipPath>
</defs>
</svg>
