<svg width="217" height="217" viewBox="0 0 217 217" fill="none" xmlns="http://www.w3.org/2000/svg">
<path d="M108.5 0L202.464 162.75H14.5362L108.5 0Z" fill="#F6CCCC"/>
<g clip-path="url(#clip0_152_4967)">
<path d="M85.0456 74.6442C84.4755 74.6442 83.9055 74.4395 83.4523 74.0229C79.988 70.8729 78 66.3707 78 61.6858C78 52.4841 85.4841 45 94.6858 45C103.888 45 111.372 52.4841 111.372 61.6858C111.372 62.9941 110.312 64.0538 109.004 64.0538C107.695 64.0538 106.636 62.9941 106.636 61.6858C106.636 55.1006 101.278 49.7434 94.6858 49.7434C88.0934 49.7434 82.7361 55.1006 82.7361 61.6858C82.7361 65.0405 84.1613 68.2636 86.6389 70.522C87.6037 71.4064 87.6768 72.9047 86.7924 73.8694C86.3319 74.3811 85.6888 74.6442 85.0456 74.6442Z" fill="#111111" stroke="#111111" stroke-width="2"/>
<path d="M132.962 74.6442C132.319 74.6442 131.675 74.3811 131.208 73.8694C130.323 72.9047 130.396 71.4064 131.361 70.522C133.839 68.2636 135.264 65.0405 135.264 61.6858C135.264 55.1006 129.907 49.7434 123.314 49.7434C116.729 49.7434 111.364 55.1006 111.364 61.6858C111.364 62.9941 110.305 64.0538 108.996 64.0538C107.688 64.0538 106.628 62.9941 106.628 61.6858C106.628 52.4841 114.112 45 123.314 45C132.516 45 140 52.4841 140 61.6858C140 66.3707 138.012 70.8729 134.548 74.0229C134.102 74.4395 133.532 74.6442 132.962 74.6442Z" fill="#111111" stroke="#111111" stroke-width="2"/>
<path d="M109.004 95.0062C107.695 95.0062 106.636 93.9464 106.636 92.6382V61.6711C106.636 60.3629 107.695 59.3031 109.004 59.3031C110.312 59.3031 111.372 60.3629 111.372 61.6711V92.6309C111.372 93.9464 110.312 95.0062 109.004 95.0062Z" fill="#111111" stroke="#111111" stroke-width="2"/>
</g>
<defs>
<clipPath id="clip0_152_4967">
<rect width="80" height="80" fill="white" transform="translate(69 30)"/>
</clipPath>
</defs>
</svg>
