<svg width="51" height="50" viewBox="0 0 51 50" fill="none" xmlns="http://www.w3.org/2000/svg">
<path fill-rule="evenodd" clip-rule="evenodd" d="M33.2775 23.4373H7.77465L18.7171 12.3315C19.3883 11.6503 19.3883 10.5563 18.7171 9.87507L18.369 9.52176C17.6835 8.82608 16.5613 8.82608 15.8758 9.52176L1.97161 23.6335C1.47878 23.8897 1.1232 24.3734 1.04412 24.9454C0.991466 25.1758 0.985941 25.4148 1.02754 25.647L1.02754 25.7132C1.02754 26.4053 1.4294 27.0037 2.01254 27.2875L16.0413 41.5257C16.7267 42.2214 17.849 42.2214 18.5344 41.5257L18.8825 41.1724C19.5538 40.4911 19.5538 39.3972 18.8825 38.7159L7.79529 27.4632H33.2775C34.244 27.4632 35.0275 26.6797 35.0275 25.7132V25.1873C35.0275 24.2208 34.244 23.4373 33.2775 23.4373Z" fill="black"/>
<path d="M7.77465 23.4373L7.41849 23.0864L6.58008 23.9373H7.77465V23.4373ZM18.7171 12.3315L18.3609 11.9806L18.7171 12.3315ZM18.7171 9.87507L19.0732 9.52415L19.0732 9.52415L18.7171 9.87507ZM18.369 9.52176L18.0128 9.87269L18.0128 9.87269L18.369 9.52176ZM15.8758 9.52176L15.5197 9.17084V9.17084L15.8758 9.52176ZM1.97161 23.6335L2.2022 24.0772L2.27231 24.0407L2.32777 23.9844L1.97161 23.6335ZM1.04412 24.9454L1.53155 25.0568L1.53642 25.0355L1.53941 25.0139L1.04412 24.9454ZM1.02754 25.647H1.52754V25.6026L1.51971 25.5588L1.02754 25.647ZM1.02754 25.7132H1.52754H1.02754ZM2.01254 27.2875L2.3687 26.9366L2.3085 26.8755L2.23139 26.838L2.01254 27.2875ZM16.0413 41.5257L16.3975 41.1748L16.0413 41.5257ZM18.5344 41.5257L18.1783 41.1748H18.1783L18.5344 41.5257ZM18.8825 41.1724L19.2387 41.5233H19.2387L18.8825 41.1724ZM18.8825 38.7159L18.5264 39.0668L18.8825 38.7159ZM7.79529 27.4632V26.9632H6.60072L7.43913 27.8141L7.79529 27.4632ZM7.77465 23.9373H33.2775V22.9373H7.77465V23.9373ZM18.3609 11.9806L7.41849 23.0864L8.13082 23.7882L19.0732 12.6825L18.3609 11.9806ZM18.3609 10.226C18.8404 10.7126 18.8404 11.494 18.3609 11.9806L19.0732 12.6825C19.9363 11.8066 19.9363 10.4001 19.0732 9.52415L18.3609 10.226ZM18.0128 9.87269L18.3609 10.226L19.0732 9.52415L18.7251 9.17084L18.0128 9.87269ZM16.232 9.87269C16.7216 9.37577 17.5232 9.37577 18.0128 9.87269L18.7251 9.17084C17.8438 8.27639 16.401 8.27639 15.5197 9.17084L16.232 9.87269ZM2.32777 23.9844L16.232 9.87269L15.5197 9.17084L1.61545 23.2826L2.32777 23.9844ZM1.53941 25.0139C1.59568 24.6069 1.84919 24.2606 2.2022 24.0772L1.74102 23.1899C1.10838 23.5187 0.65072 24.1399 0.54883 24.877L1.53941 25.0139ZM1.51971 25.5588C1.48993 25.3927 1.49391 25.2216 1.53155 25.0568L0.556686 24.8341C0.489027 25.1301 0.481947 25.437 0.535381 25.7352L1.51971 25.5588ZM1.52754 25.7132L1.52754 25.647H0.527544L0.527544 25.7132H1.52754ZM2.23139 26.838C1.81367 26.6346 1.52754 26.2068 1.52754 25.7132H0.527544C0.527544 26.6038 1.04513 27.3727 1.79368 27.7371L2.23139 26.838ZM16.3975 41.1748L2.3687 26.9366L1.65637 27.6385L15.6851 41.8766L16.3975 41.1748ZM18.1783 41.1748C17.6887 41.6717 16.8871 41.6717 16.3975 41.1748L15.6851 41.8766C16.5664 42.7711 18.0093 42.7711 18.8906 41.8766L18.1783 41.1748ZM18.5264 40.8214L18.1783 41.1748L18.8906 41.8766L19.2387 41.5233L18.5264 40.8214ZM18.5264 39.0668C19.0058 39.5534 19.0058 40.3348 18.5264 40.8215L19.2387 41.5233C20.1017 40.6474 20.1017 39.2409 19.2387 38.365L18.5264 39.0668ZM7.43913 27.8141L18.5264 39.0668L19.2387 38.365L8.15145 27.1122L7.43913 27.8141ZM33.2775 26.9632H7.79529V27.9632H33.2775V26.9632ZM34.5275 25.7132C34.5275 26.4035 33.9679 26.9632 33.2775 26.9632V27.9632C34.5202 27.9632 35.5275 26.9558 35.5275 25.7132H34.5275ZM34.5275 25.1873V25.7132H35.5275V25.1873H34.5275ZM33.2775 23.9373C33.9679 23.9373 34.5275 24.4969 34.5275 25.1873H35.5275C35.5275 23.9447 34.5202 22.9373 33.2775 22.9373V23.9373Z" fill="black"/>
</svg>
