<svg width="188" height="162" viewBox="0 0 188 162" fill="none" xmlns="http://www.w3.org/2000/svg">
<path d="M94 0L188 162H0L94 0Z" fill="#D9EED3"/>
<path d="M123.774 49.7034C91.0498 34.3635 72.3967 47.8116 70.0595 49.6834C70.0394 49.7034 70.0219 49.7034 70.0219 49.7234C66.1832 52.0807 63.6082 56.3298 63.6082 61.1845C63.6082 65.824 65.9655 69.9355 69.554 72.3528C71.7161 73.8142 74.3086 74.6726 77.0963 74.6726C84.541 74.6726 90.6018 68.6117 90.6018 61.1845C90.6018 56.4474 88.147 52.2584 84.4233 49.8611C92.336 47.9117 104.635 47.6389 121.124 55.3564C121.339 55.454 121.552 55.5315 121.787 55.5716C122.002 55.6291 122.235 55.6492 122.45 55.6492C123.619 55.6492 124.75 54.986 125.275 53.8549C126.016 52.2959 125.333 50.4241 123.774 49.7034ZM77.0938 68.414C73.0974 68.414 69.8618 65.1584 69.8618 61.182C69.8618 57.1857 73.0974 53.9325 77.0938 53.9325C81.0902 53.9325 84.3433 57.1882 84.3433 61.182C84.3433 65.1584 81.0902 68.414 77.0938 68.414Z" fill="#111111"/>
<path d="M117.068 65.8168C115.449 65.1336 113.697 64.7458 111.825 64.7458C104.38 64.7458 98.3369 70.7891 98.3369 78.2338C98.3369 82.9709 100.792 87.1425 104.495 89.5373C96.5827 91.5067 84.2834 91.7794 67.7949 84.062C67.367 83.8668 66.9166 83.7692 66.4686 83.7692C65.3 83.7692 64.1889 84.4323 63.6434 85.5609C62.9227 87.1199 63.5859 88.9917 65.1449 89.7124C76.7411 95.1502 86.5856 96.962 94.5358 96.962C109.505 96.962 117.866 90.5483 118.997 89.6324C119.017 89.6124 119.037 89.6123 119.037 89.5923C122.818 87.235 125.313 83.0235 125.313 78.2288C125.313 72.6584 121.922 67.8638 117.068 65.8168ZM111.825 71.0018C115.821 71.0018 119.075 74.2375 119.075 78.2314C119.075 82.2277 115.819 85.4833 111.825 85.4833C107.829 85.4833 104.576 82.2277 104.576 78.2314C104.576 74.2375 107.831 71.0018 111.825 71.0018Z" fill="#111111"/>
</svg>
