<svg width="217" height="217" viewBox="0 0 217 217" fill="none" xmlns="http://www.w3.org/2000/svg">
<path d="M108.5 0L202.464 162.75H14.5362L108.5 0Z" fill="#D9EED3"/>
<path d="M138.31 49.7034C105.586 34.3635 86.933 47.8116 84.5957 49.6834C84.5757 49.7034 84.5581 49.7034 84.5581 49.7234C80.7194 52.0807 78.1445 56.3298 78.1445 61.1845C78.1445 65.824 80.5018 69.9355 84.0902 72.3528C86.2523 73.8142 88.8449 74.6726 91.6326 74.6726C99.0773 74.6726 105.138 68.6117 105.138 61.1845C105.138 56.4474 102.683 52.2584 98.9596 49.8611C106.872 47.9117 119.172 47.6389 135.66 55.3564C135.875 55.454 136.088 55.5315 136.323 55.5716C136.538 55.6291 136.771 55.6492 136.986 55.6492C138.155 55.6492 139.286 54.986 139.812 53.8549C140.552 52.2959 139.869 50.4241 138.31 49.7034ZM91.63 68.414C87.6337 68.414 84.398 65.1584 84.398 61.182C84.398 57.1857 87.6337 53.9325 91.63 53.9325C95.6264 53.9325 98.8796 57.1882 98.8796 61.182C98.8796 65.1584 95.6264 68.414 91.63 68.414Z" fill="#111111"/>
<path d="M131.604 65.8168C129.985 65.1336 128.233 64.7458 126.361 64.7458C118.917 64.7458 112.873 70.7891 112.873 78.2338C112.873 82.9709 115.328 87.1425 119.032 89.5373C111.119 91.5067 98.8196 91.7794 82.3312 84.062C81.9033 83.8668 81.4528 83.7692 81.0049 83.7692C79.8363 83.7692 78.7252 84.4323 78.1797 85.5609C77.459 87.1199 78.1221 88.9917 79.6811 89.7124C91.2773 95.1502 101.122 96.962 109.072 96.962C124.042 96.962 132.402 90.5483 133.533 89.6324C133.553 89.6124 133.573 89.6123 133.573 89.5923C137.354 87.235 139.849 83.0235 139.849 78.2288C139.849 72.6584 136.459 67.8638 131.604 65.8168ZM126.361 71.0018C130.358 71.0018 133.611 74.2375 133.611 78.2314C133.611 82.2277 130.355 85.4833 126.361 85.4833C122.365 85.4833 119.112 82.2277 119.112 78.2314C119.112 74.2375 122.367 71.0018 126.361 71.0018Z" fill="#111111"/>
</svg>
