<svg width="217" height="217" viewBox="0 0 217 217" fill="none" xmlns="http://www.w3.org/2000/svg">
<path d="M108.5 0L202.464 162.75H14.5362L108.5 0Z" fill="#EEE1D6"/>
<path d="M120.52 80.3663C116.261 75.5615 114.211 65.8898 114.211 57.0476C114.228 56.0696 114.05 55.0979 113.688 54.1893C113.326 53.2808 112.786 52.4534 112.1 51.7557C111.415 51.058 110.597 50.5037 109.695 50.1254C108.793 49.7471 107.825 49.5523 106.847 49.5523C105.868 49.5523 104.9 49.7471 103.998 50.1254C103.096 50.5037 102.278 51.058 101.593 51.7557C100.907 52.4534 100.368 53.2808 100.005 54.1893C99.6432 55.0979 99.4655 56.0696 99.4828 57.0476V79.6128C99.4828 80.499 99.1307 81.3489 98.5041 81.9755C97.8774 82.6022 97.0275 82.9542 96.1413 82.9542C95.2551 82.9542 94.4052 82.6022 93.7785 81.9755C93.1519 81.3489 92.7999 80.499 92.7999 79.6128V56.241C92.7999 54.5016 92.1089 52.8334 90.8789 51.6035C89.649 50.3735 87.9808 49.6825 86.2414 49.6825C84.502 49.6825 82.8338 50.3735 81.6038 51.6035C80.3739 52.8334 79.6829 54.5016 79.6829 56.241C79.6829 57.1272 79.3309 57.9771 78.7042 58.6038C78.0776 59.2304 77.2277 59.5825 76.3415 59.5825C75.4552 59.5825 74.6053 59.2304 73.9787 58.6038C73.352 57.9771 73 57.1272 73 56.241C73.0001 53.5269 73.8342 50.8784 75.3894 48.654C76.9445 46.4297 79.1457 44.737 81.6948 43.805C84.2438 42.8731 87.0177 42.747 89.6409 43.4438C92.264 44.1406 94.6096 45.6266 96.3602 47.7007C98.2548 45.5759 100.75 44.0769 103.516 43.4021C106.281 42.7274 109.187 42.9087 111.847 43.9223C114.507 44.9358 116.797 46.7336 118.412 49.0775C120.028 51.4214 120.893 54.2008 120.893 57.0476C120.893 60.9628 121.435 65.2399 122.357 68.8302C123.666 66.7382 125.577 65.0903 127.838 64.1022C130.1 63.114 132.607 62.8317 135.031 63.2921C137.456 63.7525 139.685 64.9343 141.427 66.6827C143.169 68.431 144.342 70.6646 144.793 73.0909C145.245 75.5173 144.953 78.0233 143.956 80.2811C142.96 82.5388 141.304 84.4431 139.208 85.7445C137.111 87.046 134.67 87.684 132.204 87.5751C129.739 87.4663 127.363 86.6155 125.389 85.1342C120.695 92.0338 114.153 95.7877 105.97 96.1726C105.097 96.1938 104.251 95.8727 103.612 95.278C102.973 94.6832 102.592 93.862 102.551 92.99C102.509 92.118 102.811 91.2645 103.391 90.6121C103.971 89.9597 104.783 89.5601 105.654 89.4989C112.04 89.1993 116.916 86.2404 120.52 80.3663ZM132.745 80.9056C134.223 80.9056 135.64 80.3185 136.685 79.2735C137.73 78.2285 138.317 76.8112 138.317 75.3334C138.317 73.8556 137.73 72.4383 136.685 71.3933C135.64 70.3483 134.223 69.7612 132.745 69.7612C131.267 69.7612 129.85 70.3483 128.805 71.3933C127.76 72.4383 127.173 73.8556 127.173 75.3334C127.173 76.8112 127.76 78.2285 128.805 79.2735C129.85 80.3185 131.267 80.9056 132.745 80.9056Z" fill="#111111"/>
</svg>
