<svg width="188" height="162" viewBox="0 0 188 162" fill="none" xmlns="http://www.w3.org/2000/svg">
<path d="M94 0L188 162H0L94 0Z" fill="#EEE1D6"/>
<path d="M105.984 80.3663C101.725 75.5615 99.6743 65.8898 99.6743 57.0476C99.6916 56.0696 99.5139 55.0979 99.1516 54.1893C98.7893 53.2808 98.2496 52.4534 97.5641 51.7557C96.8786 51.058 96.061 50.5037 95.1589 50.1254C94.2569 49.7471 93.2885 49.5523 92.3104 49.5523C91.3322 49.5523 90.3639 49.7471 89.4618 50.1254C88.5598 50.5037 87.7422 51.058 87.0567 51.7557C86.3712 52.4534 85.8315 53.2808 85.4692 54.1893C85.1069 55.0979 84.9292 56.0696 84.9465 57.0476V79.6128C84.9465 80.499 84.5945 81.3489 83.9678 81.9755C83.3412 82.6022 82.4913 82.9542 81.6051 82.9542C80.7188 82.9542 79.8689 82.6022 79.2423 81.9755C78.6156 81.3489 78.2636 80.499 78.2636 79.6128V56.241C78.2636 54.5016 77.5726 52.8334 76.3427 51.6035C75.1127 50.3735 73.4445 49.6825 71.7051 49.6825C69.9657 49.6825 68.2975 50.3735 67.0676 51.6035C65.8376 52.8334 65.1467 54.5016 65.1467 56.241C65.1467 57.1272 64.7946 57.9771 64.168 58.6038C63.5413 59.2304 62.6914 59.5825 61.8052 59.5825C60.919 59.5825 60.0691 59.2304 59.4424 58.6038C58.8158 57.9771 58.4637 57.1272 58.4637 56.241C58.4638 53.5269 59.2979 50.8784 60.8531 48.654C62.4083 46.4297 64.6094 44.737 67.1585 43.805C69.7076 42.8731 72.4815 42.747 75.1046 43.4438C77.7277 44.1406 80.0734 45.6266 81.824 47.7007C83.7185 45.5759 86.2139 44.0769 88.9795 43.4021C91.7451 42.7274 94.6504 42.9087 97.3106 43.9223C99.9709 44.9358 102.26 46.7336 103.876 49.0775C105.491 51.4214 106.357 54.2008 106.357 57.0476C106.357 60.9628 106.899 65.2399 107.82 68.8302C109.13 66.7382 111.04 65.0903 113.302 64.1022C115.563 63.114 118.07 62.8317 120.495 63.2921C122.92 63.7525 125.149 64.9343 126.891 66.6827C128.632 68.431 129.806 70.6646 130.257 73.0909C130.708 75.5173 130.417 78.0233 129.42 80.2811C128.423 82.5388 126.768 84.4431 124.671 85.7445C122.574 87.046 120.133 87.684 117.668 87.5751C115.202 87.4663 112.827 86.6155 110.853 85.1342C106.159 92.0338 99.6167 95.7877 91.4335 96.1726C90.5609 96.1938 89.7145 95.8727 89.0755 95.278C88.4365 94.6832 88.0557 93.862 88.0144 92.99C87.9732 92.118 88.2748 91.2645 88.8548 90.6121C89.4348 89.9597 90.247 89.5601 91.1178 89.4989C97.5035 89.1993 102.38 86.2404 105.984 80.3663ZM118.209 80.9056C119.687 80.9056 121.104 80.3185 122.149 79.2735C123.194 78.2285 123.781 76.8112 123.781 75.3334C123.781 73.8556 123.194 72.4383 122.149 71.3933C121.104 70.3483 119.687 69.7612 118.209 69.7612C116.731 69.7612 115.314 70.3483 114.269 71.3933C113.224 72.4383 112.637 73.8556 112.637 75.3334C112.637 76.8112 113.224 78.2285 114.269 79.2735C115.314 80.3185 116.731 80.9056 118.209 80.9056Z" fill="#111111"/>
</svg>
