<svg width="50" height="50" viewBox="0 0 50 50" fill="none" xmlns="http://www.w3.org/2000/svg">
<path fill-rule="evenodd" clip-rule="evenodd" d="M11.5568 12.5568C12.2993 11.8144 13.503 11.8144 14.2455 12.5568L25 23.3114L35.7545 12.5568C36.497 11.8144 37.7007 11.8144 38.4432 12.5568C39.1856 13.2993 39.1856 14.503 38.4432 15.2455L27.6886 26L38.4432 36.7545C39.1856 37.497 39.1856 38.7007 38.4432 39.4432C37.7007 40.1856 36.497 40.1856 35.7545 39.4432L25 28.6886L14.2455 39.4432C13.503 40.1856 12.2993 40.1856 11.5568 39.4432C10.8144 38.7007 10.8144 37.497 11.5568 36.7545L22.3114 26L11.5568 15.2455C10.8144 14.503 10.8144 13.2993 11.5568 12.5568Z" fill="black"/>
<path d="M14.2455 12.5568L14.599 12.2033V12.2033L14.2455 12.5568ZM11.5568 12.5568L11.2033 12.2033L11.2033 12.2033L11.5568 12.5568ZM25 23.3114L24.6464 23.6649L25 24.0185L25.3536 23.6649L25 23.3114ZM35.7545 12.5568L36.1081 12.9104V12.9104L35.7545 12.5568ZM38.4432 12.5568L38.0896 12.9104L38.4432 12.5568ZM38.4432 15.2455L38.0896 14.8919V14.8919L38.4432 15.2455ZM27.6886 26L27.3351 25.6464L26.9815 26L27.3351 26.3536L27.6886 26ZM38.4432 36.7545L38.0896 37.1081L38.4432 36.7545ZM25 28.6886L25.3536 28.3351L25 27.9815L24.6464 28.3351L25 28.6886ZM14.2455 39.4432L14.599 39.7967L14.2455 39.4432ZM11.5568 39.4432L11.2033 39.7967H11.2033L11.5568 39.4432ZM11.5568 36.7545L11.9104 37.1081H11.9104L11.5568 36.7545ZM22.3114 26L22.6649 26.3536L23.0185 26L22.6649 25.6464L22.3114 26ZM11.5568 15.2455L11.9104 14.8919H11.9104L11.5568 15.2455ZM14.599 12.2033C13.6613 11.2656 12.141 11.2656 11.2033 12.2033L11.9104 12.9104C12.4576 12.3632 13.3447 12.3632 13.8919 12.9104L14.599 12.2033ZM25.3536 22.9578L14.599 12.2033L13.8919 12.9104L24.6464 23.6649L25.3536 22.9578ZM25.3536 23.6649L36.1081 12.9104L35.401 12.2033L24.6464 22.9578L25.3536 23.6649ZM36.1081 12.9104C36.6553 12.3632 37.5424 12.3632 38.0896 12.9104L38.7967 12.2033C37.859 11.2656 36.3387 11.2656 35.401 12.2033L36.1081 12.9104ZM38.0896 12.9104C38.6368 13.4576 38.6368 14.3447 38.0896 14.8919L38.7967 15.599C39.7344 14.6613 39.7344 13.141 38.7967 12.2033L38.0896 12.9104ZM38.0896 14.8919L27.3351 25.6464L28.0422 26.3536L38.7967 15.599L38.0896 14.8919ZM38.7967 36.401L28.0422 25.6464L27.3351 26.3536L38.0896 37.1081L38.7967 36.401ZM38.7967 39.7967C39.7344 38.859 39.7344 37.3387 38.7967 36.401L38.0896 37.1081C38.6368 37.6553 38.6368 38.5424 38.0896 39.0896L38.7967 39.7967ZM35.401 39.7967C36.3387 40.7344 37.859 40.7344 38.7967 39.7967L38.0896 39.0896C37.5424 39.6368 36.6553 39.6368 36.1081 39.0896L35.401 39.7967ZM24.6464 29.0422L35.401 39.7967L36.1081 39.0896L25.3536 28.3351L24.6464 29.0422ZM24.6464 28.3351L13.8919 39.0896L14.599 39.7967L25.3536 29.0422L24.6464 28.3351ZM13.8919 39.0896C13.3447 39.6368 12.4576 39.6368 11.9104 39.0896L11.2033 39.7967C12.141 40.7344 13.6613 40.7344 14.599 39.7967L13.8919 39.0896ZM11.9104 39.0896C11.3632 38.5424 11.3632 37.6553 11.9104 37.1081L11.2033 36.401C10.2656 37.3387 10.2656 38.859 11.2033 39.7967L11.9104 39.0896ZM11.9104 37.1081L22.6649 26.3536L21.9578 25.6464L11.2033 36.401L11.9104 37.1081ZM11.2033 15.599L21.9578 26.3536L22.6649 25.6464L11.9104 14.8919L11.2033 15.599ZM11.2033 12.2033C10.2656 13.141 10.2656 14.6613 11.2033 15.599L11.9104 14.8919C11.3632 14.3447 11.3632 13.4576 11.9104 12.9104L11.2033 12.2033Z" fill="black"/>
</svg>
