<svg width="188" height="162" viewBox="0 0 188 162" fill="none" xmlns="http://www.w3.org/2000/svg">
<path d="M94 0L188 162H0L94 0Z" fill="#FFFAC1"/>
<path d="M73.098 45.0025C73.9641 45.0025 74.359 45.4671 75.1952 45.7823C76.6437 46.3249 77.9793 46.9305 79.6301 47.5195C80.4697 47.8198 81.7273 48.1184 82.386 48.2993C85.1335 49.0492 87.9574 49.5337 91.1944 49.8572C91.7934 49.9169 93.0527 50.0364 93.8905 50.0364C96.7691 50.2156 99.4122 49.8456 101.921 49.6166C104.517 49.381 106.792 48.6991 109.112 48.1184C111.673 47.478 113.988 46.5173 116.183 45.5418C116.842 45.2415 117.321 45.122 117.562 45.0623C118.829 44.7454 119.647 45.7044 120.138 46.441C121.084 47.8613 119.767 49.4258 118.76 49.8572C116.569 51.1713 113.359 52.0373 110.729 52.9134L110.429 52.9731V87.0106C112.589 87.442 115.201 88.5718 117.14 89.3483C118.559 89.9158 119.42 90.3123 120.137 91.3858C121.016 92.7048 119.84 94.1599 119.058 94.6808C118.144 95.2914 117.212 94.9098 116.181 94.4419C114.003 93.4746 111.428 92.3846 108.871 91.7458C105.169 90.82 101.529 89.9473 97.0064 89.9473C96.0474 89.8876 94.8495 89.8876 93.8905 89.9473C91.1927 89.9473 89.303 90.2476 86.9984 90.6657C83.7249 91.2613 80.6853 92.0046 77.8897 93.1229C76.8062 93.5559 74.9845 94.2163 74.0537 94.6808C73.7534 94.8003 73.4548 94.9812 73.2142 94.9812C71.5932 94.9812 70.9312 94.067 70.5181 92.8243C70.1713 91.0871 71.5501 90.3223 72.7944 89.7681C74.3291 89.0862 76.2836 88.3246 78.0672 87.7307C79.2983 87.3209 79.7297 87.1168 80.4647 87.0122V52.9748C79.0992 52.779 76.4894 51.6989 75.1322 51.1762C73.9508 50.7092 72.791 50.1893 71.6562 49.6183C70.8648 49.2234 70.0137 47.5576 70.757 46.4427C71.278 45.6612 71.8288 45.0042 73.0947 45.0042L73.098 45.0025ZM85.623 54.171H85.5035V69.991C85.5035 85.0312 85.5035 85.811 85.623 85.811C85.6827 85.811 86.0427 85.6916 86.4625 85.6318C89.6945 85.1706 91.3537 84.9732 95.4518 84.9732C99.4852 84.9732 100.628 85.0777 103.84 85.5721C104.62 85.6916 105.219 85.811 105.279 85.811C105.339 85.8708 105.398 84.0125 105.398 69.991C105.398 54.9508 105.398 54.1113 105.279 54.171C105.219 54.171 104.799 54.2905 104.26 54.3502C102.838 54.5078 101.201 54.8197 99.6461 54.9492C98.6871 55.0089 97.7879 55.0089 95.4518 55.0089C91.3338 55.0089 90.3698 54.916 87.2423 54.4697C86.8225 54.4099 86.2833 54.3502 86.1041 54.2905C85.9249 54.2307 85.6844 54.171 85.6246 54.171H85.623Z" fill="#111111" stroke="#111111" stroke-width="2"/>
</svg>
