<svg width="217" height="217" viewBox="0 0 217 217" fill="none" xmlns="http://www.w3.org/2000/svg">
<path d="M108.5 0L202.464 162.75H14.5362L108.5 0Z" fill="#F5DDC6"/>
<path d="M106.287 68.4132C106.989 69.9373 107.483 70.866 107.504 70.8871C107.547 70.9692 107.608 71.0724 107.629 71.1544C107.298 70.186 106.843 69.2784 106.287 68.4132Z" fill="#111111"/>
<path d="M101.548 73.7701C101.342 73.3361 100.95 72.5953 100.498 71.6057C100.95 72.2672 101.321 72.9869 101.548 73.7701Z" fill="#111111"/>
<path d="M130.791 91.2679C129.183 90.4239 127.185 91.0616 126.341 92.6703C125.907 93.4746 123.579 97.4303 119.89 95.9062C116.305 94.4219 118.427 87.4578 122.507 75.2971L122.756 74.5351C127.27 61.0779 127.166 52.9178 127.145 52.6294C127.145 44.0778 120.2 37.1111 111.627 37.1111C103.157 37.1111 96.254 43.9323 96.1297 52.3807C96.1085 52.4628 96.1085 52.5448 96.1085 52.6294C95.9656 55.8019 96.3969 58.9982 97.0769 61.9034C96.0662 61.6759 95.0158 61.5541 93.9442 61.5541C85.8873 61.5541 79.3333 68.1081 79.3333 76.1438C79.3333 84.2007 85.8873 90.7546 93.9442 90.7546C101.982 90.7546 108.534 84.2007 108.534 76.1438C108.534 74.4954 108.267 72.929 107.751 71.4658C107.729 71.3626 107.69 71.2594 107.626 71.1562C107.605 71.0742 107.544 70.971 107.502 70.889C107.481 70.8678 106.986 69.9418 106.285 68.4151C104.779 65.0547 102.411 58.7495 102.721 52.8147V52.6691C102.721 52.6479 102.721 52.6479 102.721 52.6268C102.721 47.7212 106.719 43.7232 111.624 43.7232C116.548 43.7232 120.549 47.7212 120.549 52.6877C120.549 52.7697 120.591 60.1677 116.49 72.4316L116.244 73.1936C111.566 87.1244 107.878 98.1289 117.376 102.002C118.861 102.622 120.282 102.889 121.602 102.889C126.939 102.889 130.73 98.539 132.194 95.6973C133.035 94.0912 132.397 92.112 130.791 91.2679ZM93.9415 84.1371C89.5307 84.1371 85.9455 80.5519 85.9455 76.1411C85.9455 71.7304 89.5307 68.1664 93.9415 68.1664C96.6615 68.1664 99.0719 69.5264 100.495 71.6087C100.948 72.2675 101.318 72.9899 101.546 73.7731C101.792 74.5139 101.916 75.3183 101.916 76.1438C101.919 80.5519 98.3337 84.1371 93.9415 84.1371Z" fill="#111111"/>
</svg>
