<svg width="188" height="162" viewBox="0 0 188 162" fill="none" xmlns="http://www.w3.org/2000/svg">
<path d="M94 0L188 162H0L94 0Z" fill="#F5DDC6"/>
<path d="M91.7511 68.4132C92.4523 69.9373 92.947 70.866 92.9682 70.8871C93.0105 70.9692 93.0714 71.0724 93.0926 71.1544C92.7618 70.186 92.3067 69.2784 91.7511 68.4132Z" fill="#111111"/>
<path d="M87.0122 73.7701C86.8058 73.3361 86.4142 72.5953 85.9618 71.6057C86.4142 72.2672 86.7847 72.9869 87.0122 73.7701Z" fill="#111111"/>
<path d="M116.255 91.2679C114.646 90.4239 112.649 91.0616 111.805 92.6703C111.371 93.4746 109.042 97.4303 105.354 95.9062C101.769 94.4219 103.891 87.4578 107.971 75.2971L108.219 74.5351C112.733 61.0779 112.63 52.9178 112.609 52.6294C112.609 44.0778 105.663 37.1111 97.0906 37.1111C88.621 37.1111 81.7178 43.9323 81.5934 52.3807C81.5723 52.4628 81.5723 52.5448 81.5723 52.6294C81.4294 55.8019 81.8607 58.9982 82.5407 61.9034C81.5299 61.6759 80.4795 61.5541 79.4079 61.5541C71.3511 61.5541 64.7971 68.1081 64.7971 76.1438C64.7971 84.2007 71.3511 90.7546 79.4079 90.7546C87.4462 90.7546 93.9976 84.2007 93.9976 76.1438C93.9976 74.4954 93.7303 72.929 93.2143 71.4658C93.1932 71.3626 93.1535 71.2594 93.09 71.1562C93.0688 71.0742 93.008 70.971 92.9656 70.889C92.9445 70.8678 92.4497 69.9418 91.7485 68.4151C90.243 65.0547 87.8749 58.7495 88.1844 52.8147V52.6691C88.1844 52.6479 88.1844 52.6479 88.1844 52.6268C88.1844 47.7212 92.1825 43.7232 97.088 43.7232C102.012 43.7232 106.013 47.7212 106.013 52.6877C106.013 52.7697 106.055 60.1677 101.954 72.4316L101.708 73.1936C97.0298 87.1244 93.3413 98.1289 102.84 102.002C104.325 102.622 105.746 102.889 107.066 102.889C112.403 102.889 116.194 98.539 117.657 95.6973C118.499 94.0912 117.861 92.112 116.255 91.2679ZM79.4053 84.1371C74.9945 84.1371 71.4092 80.5519 71.4092 76.1411C71.4092 71.7304 74.9945 68.1664 79.4053 68.1664C82.1253 68.1664 84.5357 69.5264 85.9592 71.6087C86.4116 72.2675 86.7821 72.9899 87.0096 73.7731C87.2557 74.5139 87.3801 75.3183 87.3801 76.1438C87.3827 80.5519 83.7975 84.1371 79.4053 84.1371Z" fill="#111111"/>
</svg>
