<svg width="217" height="217" viewBox="0 0 217 217" fill="none" xmlns="http://www.w3.org/2000/svg">
<path d="M108.5 0L202.464 162.75H14.5362L108.5 0Z" fill="#F6DAE5"/>
<path d="M77 75.3885C77 73.3178 78.6763 71.6416 80.7231 71.6416H93.3832C91.94 69.036 91.1482 66.0809 91.1482 62.9853C91.1482 53.1399 99.153 45.1111 108.999 45.1111C118.844 45.1111 126.873 53.1399 126.873 62.9853C126.873 66.0809 126.057 69.036 124.617 71.6416H137.253C139.303 71.6416 140.976 73.3178 140.976 75.3885C140.976 77.4383 139.3 79.1116 137.253 79.1116H115.796C114.096 79.1116 112.608 77.9493 112.19 76.2939C111.747 74.6655 112.515 72.9204 114.006 72.1047C117.335 70.2671 119.406 66.7741 119.406 62.9823C119.406 57.2573 114.727 52.5781 109.002 52.5781C103.277 52.5781 98.6003 57.2573 98.6003 62.9823C98.6003 66.7771 100.695 70.2671 104.024 72.1047C105.512 72.9175 106.259 74.6655 105.837 76.2939C105.419 77.9463 103.928 79.1116 102.231 79.1116H80.726C78.6763 79.1116 77 77.4353 77 75.3885Z" fill="#111111"/>
<path d="M141 90.7474C141 92.8181 139.324 94.4705 137.253 94.4705H80.7469C78.6763 94.4705 77 92.8181 77 90.7474C77 88.6767 78.6763 87.0244 80.7469 87.0244H137.253C139.324 87.0244 141 88.6767 141 90.7474Z" fill="#111111"/>
</svg>
