<svg width="188" height="162" viewBox="0 0 188 162" fill="none" xmlns="http://www.w3.org/2000/svg">
<path d="M94 0L188 162H0L94 0Z" fill="#F6DAE5"/>
<path d="M62.4637 75.3885C62.4637 73.3178 64.14 71.6416 66.1868 71.6416H78.847C77.4038 69.036 76.6119 66.0809 76.6119 62.9853C76.6119 53.1399 84.6168 45.1111 94.4623 45.1111C104.308 45.1111 112.336 53.1399 112.336 62.9853C112.336 66.0809 111.521 69.036 110.081 71.6416H122.717C124.767 71.6416 126.44 73.3178 126.44 75.3885C126.44 77.4383 124.764 79.1116 122.717 79.1116H101.26C99.5598 79.1116 98.0718 77.9493 97.6534 76.2939C97.2112 74.6655 97.9791 72.9204 99.4701 72.1047C102.799 70.2671 104.869 66.7741 104.869 62.9823C104.869 57.2573 100.19 52.5781 94.4653 52.5781C88.7403 52.5781 84.064 57.2573 84.064 62.9823C84.064 66.7771 86.1586 70.2671 89.4873 72.1047C90.9753 72.9175 91.7223 74.6655 91.301 76.2939C90.8826 77.9463 89.3916 79.1116 87.6944 79.1116H66.1898C64.14 79.1116 62.4637 77.4353 62.4637 75.3885Z" fill="#111111"/>
<path d="M126.464 90.7474C126.464 92.8181 124.787 94.4705 122.717 94.4705H66.2107C64.14 94.4705 62.4637 92.8181 62.4637 90.7474C62.4637 88.6767 64.14 87.0244 66.2107 87.0244H122.717C124.787 87.0244 126.464 88.6767 126.464 90.7474Z" fill="#111111"/>
</svg>
