<svg width="28" height="36" viewBox="0 0 28 36" fill="none" xmlns="http://www.w3.org/2000/svg">
<path d="M22.8425 19.9248C24.8508 18.8814 26.5983 17.0564 26.858 15.1382C27.32 11.7229 25.0749 9.15297 22.2083 7.96821C18.7845 6.55273 21.0691 7.56648 7.97277 4.20605C1.67808 2.59114 1.27517 1.08528 1.41641 0C-0.284202 1.08528 -0.806559 6.99741 2.14129 8.77535C5.17156 10.6028 11.209 10.9834 18.7963 13.0842C25.4669 14.9315 24.4798 18.3353 22.8425 19.9248Z" fill="url(#paint0_linear_27_310)"/>
<path d="M24.1905 20.9281C23.6111 20.5931 22.9794 20.3172 22.3055 20.1107C12.8161 17.9903 11.9835 18.0351 8.83479 17.2892C0.254547 15.2559 1.28566 13.5623 1.06659 12.8862C-0.515227 14.53 -0.542101 19.6716 2.39051 21.2139C5.94707 23.0842 12.2052 23.6951 20.1358 25.62C22.7151 26.246 24.2265 26.993 25.3551 27.8777C26.6079 28.8599 26.9517 30.2956 25.9915 31.4999C25.1513 32.5535 22.9062 32.3814 20.4173 32.0431C16.0031 31.4433 10.4061 30.1941 8.83463 29.7695C1.77345 27.8621 1.2855 26.0426 1.06643 25.3669C-0.515393 27.0107 -0.542266 32.1518 2.39035 33.6944C4.7154 34.9171 6.92232 35.62 11.7058 35.9006C15.2094 36.1057 21.5736 36.2981 24.6907 33.1421C24.9942 32.8354 27.4185 31.0451 27.9199 27.9612C28.3865 25.095 26.7718 22.4208 24.1905 20.9281Z" fill="url(#paint1_linear_27_310)"/>
<defs>
<linearGradient id="paint0_linear_27_310" x1="0.00019809" y1="24.4431" x2="28.0002" y2="24.4431" gradientUnits="userSpaceOnUse">
<stop stop-color="white"/>
<stop offset="0.6" stop-color="white"/>
<stop offset="1" stop-color="white" stop-opacity="0.2"/>
</linearGradient>
<linearGradient id="paint1_linear_27_310" x1="0.00019809" y1="24.4431" x2="28.0002" y2="24.4431" gradientUnits="userSpaceOnUse">
<stop stop-color="white"/>
<stop offset="0.6" stop-color="white"/>
<stop offset="1" stop-color="white" stop-opacity="0.2"/>
</linearGradient>
</defs>
</svg>
