<svg width="50" height="50" viewBox="0 0 50 50" fill="none" xmlns="http://www.w3.org/2000/svg">
<path fill-rule="evenodd" clip-rule="evenodd" d="M7.8125 13.3334C7.8125 12.4129 8.55869 11.6667 9.47917 11.6667H39.4792C40.3996 11.6667 41.1458 12.4129 41.1458 13.3334C41.1458 14.2539 40.3996 15.0001 39.4792 15.0001H9.47917C8.55869 15.0001 7.8125 14.2539 7.8125 13.3334ZM7.8125 25.8334C7.8125 24.9129 8.55869 24.1667 9.47917 24.1667H39.1458C40.0663 24.1667 40.8125 24.9129 40.8125 25.8334C40.8125 26.7539 40.0663 27.5001 39.1458 27.5001H9.47917C8.55869 27.5001 7.8125 26.7539 7.8125 25.8334ZM9.47917 36.6667C8.55869 36.6667 7.8125 37.4129 7.8125 38.3334C7.8125 39.2539 8.55869 40.0001 9.47917 40.0001H39.4792C40.3996 40.0001 41.1458 39.2539 41.1458 38.3334C41.1458 37.4129 40.3996 36.6667 39.4792 36.6667H9.47917Z" fill="black"/>
<path d="M9.47917 11.1667C8.28255 11.1667 7.3125 12.1368 7.3125 13.3334H8.3125C8.3125 12.6891 8.83483 12.1667 9.47917 12.1667V11.1667ZM39.4792 11.1667H9.47917V12.1667H39.4792V11.1667ZM41.6458 13.3334C41.6458 12.1368 40.6758 11.1667 39.4792 11.1667V12.1667C40.1235 12.1667 40.6458 12.6891 40.6458 13.3334H41.6458ZM39.4792 15.5001C40.6758 15.5001 41.6458 14.53 41.6458 13.3334H40.6458C40.6458 13.9777 40.1235 14.5001 39.4792 14.5001V15.5001ZM9.47917 15.5001H39.4792V14.5001H9.47917V15.5001ZM7.3125 13.3334C7.3125 14.53 8.28255 15.5001 9.47917 15.5001V14.5001C8.83483 14.5001 8.3125 13.9777 8.3125 13.3334H7.3125ZM9.47917 23.6667C8.28255 23.6667 7.3125 24.6368 7.3125 25.8334H8.3125C8.3125 25.1891 8.83483 24.6667 9.47917 24.6667V23.6667ZM39.1458 23.6667H9.47917V24.6667H39.1458V23.6667ZM41.3125 25.8334C41.3125 24.6368 40.3425 23.6667 39.1458 23.6667V24.6667C39.7902 24.6667 40.3125 25.1891 40.3125 25.8334H41.3125ZM39.1458 28.0001C40.3425 28.0001 41.3125 27.03 41.3125 25.8334H40.3125C40.3125 26.4777 39.7902 27.0001 39.1458 27.0001V28.0001ZM9.47917 28.0001H39.1458V27.0001H9.47917V28.0001ZM7.3125 25.8334C7.3125 27.03 8.28255 28.0001 9.47917 28.0001V27.0001C8.83483 27.0001 8.3125 26.4777 8.3125 25.8334H7.3125ZM8.3125 38.3334C8.3125 37.6891 8.83483 37.1667 9.47917 37.1667V36.1667C8.28255 36.1667 7.3125 37.1368 7.3125 38.3334H8.3125ZM9.47917 39.5001C8.83483 39.5001 8.3125 38.9777 8.3125 38.3334H7.3125C7.3125 39.53 8.28255 40.5001 9.47917 40.5001V39.5001ZM39.4792 39.5001H9.47917V40.5001H39.4792V39.5001ZM40.6458 38.3334C40.6458 38.9777 40.1235 39.5001 39.4792 39.5001V40.5001C40.6758 40.5001 41.6458 39.53 41.6458 38.3334H40.6458ZM39.4792 37.1667C40.1235 37.1667 40.6458 37.6891 40.6458 38.3334H41.6458C41.6458 37.1368 40.6758 36.1667 39.4792 36.1667V37.1667ZM9.47917 37.1667H39.4792V36.1667H9.47917V37.1667Z" fill="black"/>
</svg>
