<svg width="217" height="217" viewBox="0 0 217 217" fill="none" xmlns="http://www.w3.org/2000/svg">
<path d="M108.5 0L202.464 162.75H14.5362L108.5 0Z" fill="#E1D291"/>
<path d="M135.872 95.463C135.321 96.7624 133.921 97.5556 132.451 97.5556C132.016 97.5556 131.556 97.4747 131.12 97.3312C121.186 93.9183 114.349 83.9381 113.636 72.1105H107.488C106.775 83.9381 99.9377 93.9157 90.0041 97.3312C89.5682 97.4747 89.1322 97.5556 88.6726 97.5556C87.2056 97.5556 85.8033 96.7624 85.2524 95.463C84.5189 93.7957 85.4586 91.9067 87.341 91.257C94.3611 88.8382 99.4339 81.1358 100.12 72.1131H89.795C87.7771 72.1131 86.1244 70.6702 86.1244 68.862C86.1244 67.0538 87.7771 65.6109 89.795 65.6109H99.8434C98.559 57.5823 93.7631 50.9575 87.3381 48.7423C85.4557 48.0926 84.516 46.2009 85.2495 44.5154C85.983 42.8481 88.1188 42.0157 89.9983 42.6654C99.2896 45.8356 105.877 54.7983 107.276 65.6083H113.839C115.239 54.7957 121.823 45.8356 131.117 42.6654C132.999 42.0157 135.132 42.8481 135.866 44.5154C136.599 46.2009 135.66 48.0926 133.777 48.7423C127.352 50.9575 122.556 57.5823 121.272 65.6109H130.495C132.516 65.6109 134.166 67.0538 134.166 68.862C134.166 70.6702 132.513 72.1131 130.495 72.1131H120.998C121.687 81.1358 126.757 88.8382 133.777 91.257C135.665 91.9093 136.605 93.7983 135.872 95.463Z" fill="#111111"/>
</svg>
