<svg width="188" height="162" viewBox="0 0 188 162" fill="none" xmlns="http://www.w3.org/2000/svg">
<path d="M94 0L188 162H0L94 0Z" fill="#E1D291"/>
<path d="M121.335 95.463C120.785 96.7624 119.385 97.5556 117.915 97.5556C117.479 97.5556 117.02 97.4747 116.584 97.3312C106.65 93.9183 99.8128 83.9381 99.0998 72.1105H92.9518C92.2388 83.9381 85.4014 93.9157 75.4679 97.3312C75.0319 97.4747 74.5959 97.5556 74.1364 97.5556C72.6693 97.5556 71.267 96.7624 70.7161 95.463C69.9826 93.7957 70.9224 91.9067 72.8048 91.257C79.8248 88.8382 84.8977 81.1358 85.5841 72.1131H75.2587C73.2408 72.1131 71.5881 70.6702 71.5881 68.862C71.5881 67.0538 73.2408 65.6109 75.2587 65.6109H85.3072C84.0227 57.5823 79.2269 50.9575 72.8019 48.7423C70.9194 48.0926 69.9797 46.2009 70.7132 44.5154C71.4468 42.8481 73.5825 42.0157 75.462 42.6654C84.7533 45.8356 91.3403 54.7983 92.7396 65.6083H99.3031C100.702 54.7957 107.286 45.8356 116.581 42.6654C118.463 42.0157 120.596 42.8481 121.33 44.5154C122.063 46.2009 121.123 48.0926 119.241 48.7423C112.816 50.9575 108.02 57.5823 106.736 65.6109H115.959C117.98 65.6109 119.63 67.0538 119.63 68.862C119.63 70.6702 117.977 72.1131 115.959 72.1131H106.462C107.151 81.1358 112.221 88.8382 119.241 91.257C121.129 91.9093 122.069 93.7983 121.335 95.463Z" fill="#111111"/>
</svg>
