<svg width="217" height="217" viewBox="0 0 217 217" fill="none" xmlns="http://www.w3.org/2000/svg">
<path d="M108.5 0L202.464 162.75H14.5362L108.5 0Z" fill="#E3F7EE"/>
<path d="M137.444 47.2612V72.8762C137.444 75.0217 135.687 76.7789 133.517 76.7789C131.371 76.7789 129.614 75.0217 129.614 72.8762V56.7736L108.462 77.9503L115.294 84.7816C116.832 86.3195 116.832 88.7814 115.294 90.3193C114.536 91.0773 113.536 91.4657 112.537 91.4657C111.535 91.4657 110.536 91.0742 109.756 90.3193L102.925 83.488L90.7999 95.6128C90.02 96.3676 89.0177 96.7591 88.0185 96.7591C87.0194 96.7591 86.0171 96.3676 85.2622 95.6128C83.7274 94.0748 83.7274 91.6129 85.2622 90.075L97.3869 77.9503L90.5556 71.119C89.0428 69.5811 89.0428 67.1193 90.5556 65.5814C92.0935 64.0435 94.5554 64.0435 96.0933 65.5814L102.925 72.4127L124.198 51.1638H108.099C105.928 51.1638 104.196 49.4067 104.196 47.2612C104.196 45.0906 105.928 43.3333 108.099 43.3333H133.52C135.69 43.3333 137.444 45.0906 137.444 47.2612Z" fill="#111111"/>
</svg>
