<svg width="188" height="162" viewBox="0 0 188 162" fill="none" xmlns="http://www.w3.org/2000/svg">
<path d="M94 0L188 162H0L94 0Z" fill="#E3F7EE"/>
<path d="M122.908 47.2612V72.8762C122.908 75.0217 121.151 76.7789 118.98 76.7789C116.835 76.7789 115.078 75.0217 115.078 72.8762V56.7736L93.9261 77.9503L100.757 84.7816C102.295 86.3195 102.295 88.7814 100.757 90.3193C99.9994 91.0773 99.0002 91.4657 98.001 91.4657C96.9987 91.4657 95.9996 91.0742 95.2197 90.3193L88.3884 83.488L76.2637 95.6128C75.4838 96.3676 74.4814 96.7591 73.4823 96.7591C72.4831 96.7591 71.4808 96.3676 70.7259 95.6128C69.1912 94.0748 69.1912 91.6129 70.7259 90.075L82.8506 77.9503L76.0193 71.119C74.5065 69.5811 74.5065 67.1193 76.0193 65.5814C77.5573 64.0435 80.0191 64.0435 81.557 65.5814L88.3884 72.4127L109.662 51.1638H93.5628C91.3921 51.1638 89.66 49.4067 89.66 47.2612C89.66 45.0906 91.3921 43.3333 93.5628 43.3333H118.984C121.154 43.3333 122.908 45.0906 122.908 47.2612Z" fill="#111111"/>
</svg>
