<svg width="188" height="162" viewBox="0 0 188 162" fill="none" xmlns="http://www.w3.org/2000/svg">
<path d="M94 0L188 162H0L94 0Z" fill="#DFE1F6"/>
<path d="M129.335 84.8202L120.979 78.4971C120.114 77.8197 118.909 77.7067 117.931 78.196C116.952 78.6853 116.312 79.7015 116.312 80.793V83.7287L113.301 83.7663C112.172 83.3523 111.344 82.1856 111.344 80.8683V55.9901C111.344 49.9305 106.414 45 100.354 45C97.1548 45 94.2944 46.3926 92.262 48.5755C90.2672 46.3926 87.3691 45 84.17 45C81.0084 45 78.1857 46.3549 76.1909 48.4626C74.309 46.3549 71.6744 45 68.7387 45C63.0931 45 58.4638 49.9305 58.4638 55.9901C58.4638 57.6085 59.7811 58.8881 61.3618 58.8881C62.9802 58.8881 64.2599 57.5708 64.2599 55.9901C64.2599 53.1296 66.2547 50.7961 68.7011 50.7961C71.1475 50.7961 73.1423 53.1296 73.1423 55.9901V84.4438C73.1423 86.0622 74.4596 87.3419 76.0403 87.3419C77.6587 87.3419 78.9384 86.0246 78.9384 84.4438V55.9901C78.9384 53.1296 81.2719 50.7961 84.1323 50.7961C86.9928 50.7961 89.3263 53.1296 89.3263 55.9901V84.4438C89.3263 86.0622 90.6436 87.3419 92.2243 87.3419C93.8427 87.3419 95.1224 86.0246 95.1224 84.4438V55.9901C95.1224 53.1296 97.4559 50.7961 100.316 50.7961C103.177 50.7961 105.51 53.1296 105.51 55.9901V80.9059C105.51 85.0084 108.258 88.5463 112.134 89.5248C112.36 89.6001 112.586 89.6001 112.85 89.6001H112.887L116.275 89.5625V93.4391C116.275 94.5306 116.914 95.5468 117.893 96.0361C118.307 96.2243 118.759 96.3372 119.173 96.3372C119.812 96.3372 120.415 96.149 120.942 95.735L129.297 89.4119C130.012 88.8474 130.464 88.0193 130.464 87.0784C130.464 86.2127 130.05 85.3847 129.335 84.8202Z" fill="black"/>
</svg>
