<svg width="217" height="217" viewBox="0 0 217 217" fill="none" xmlns="http://www.w3.org/2000/svg">
<path d="M108.5 0L202.464 162.75H14.5362L108.5 0Z" fill="#DFE1F6"/>
<path d="M143.871 84.8202L135.515 78.4971C134.65 77.8197 133.445 77.7067 132.467 78.196C131.488 78.6853 130.848 79.7015 130.848 80.793V83.7287L127.837 83.7663C126.708 83.3523 125.88 82.1856 125.88 80.8683V55.9901C125.88 49.9305 120.95 45 114.89 45C111.691 45 108.831 46.3926 106.798 48.5755C104.803 46.3926 101.905 45 98.7062 45C95.5447 45 92.7219 46.3549 90.7271 48.4626C88.8453 46.3549 86.2107 45 83.275 45C77.6294 45 73 49.9305 73 55.9901C73 57.6085 74.3173 58.8881 75.8981 58.8881C77.5165 58.8881 78.7961 57.5708 78.7961 55.9901C78.7961 53.1296 80.7909 50.7961 83.2373 50.7961C85.6837 50.7961 87.6785 53.1296 87.6785 55.9901V84.4438C87.6785 86.0622 88.9958 87.3419 90.5766 87.3419C92.195 87.3419 93.4746 86.0246 93.4746 84.4438V55.9901C93.4746 53.1296 95.8082 50.7961 98.6686 50.7961C101.529 50.7961 103.863 53.1296 103.863 55.9901V84.4438C103.863 86.0622 105.18 87.3419 106.761 87.3419C108.379 87.3419 109.659 86.0246 109.659 84.4438V55.9901C109.659 53.1296 111.992 50.7961 114.853 50.7961C117.713 50.7961 120.047 53.1296 120.047 55.9901V80.9059C120.047 85.0084 122.794 88.5463 126.671 89.5248C126.896 89.6001 127.122 89.6001 127.386 89.6001H127.423L130.811 89.5625V93.4391C130.811 94.5306 131.451 95.5468 132.429 96.0361C132.843 96.2243 133.295 96.3372 133.709 96.3372C134.349 96.3372 134.951 96.149 135.478 95.735L143.833 89.4119C144.548 88.8474 145 88.0193 145 87.0784C145 86.2127 144.586 85.3847 143.871 84.8202Z" fill="black"/>
</svg>
