<svg width="217" height="217" viewBox="0 0 217 217" fill="none" xmlns="http://www.w3.org/2000/svg">
<path d="M108.5 0L202.464 162.75H14.5362L108.5 0Z" fill="#D1FBFF"/>
<g opacity="0.9">
<path d="M100.61 62.8045C98.7717 62.0728 97.2807 61.1441 96.1366 60.0196C94.9924 58.8938 93.7273 57.0837 92.3388 54.5903L90.6796 51.6083C88.6356 47.9511 86.3288 46.1225 83.7593 46.1225H83V43H85.0533C88.7105 43 92.0197 45.5695 94.9832 50.7084L97.2623 54.6744C98.7809 57.3003 100.365 59.1335 102.016 60.174C103.666 61.2144 105.833 61.7352 108.514 61.7352C111.177 61.7352 113.338 61.2144 114.999 60.174C116.658 59.1335 118.247 57.3003 119.767 54.6744L122.044 50.7084C125.008 45.5695 128.309 43 131.947 43H134V46.1225H133.269C130.68 46.1225 128.364 47.9511 126.32 51.6083L124.661 54.5903C123.273 57.0837 122.008 58.8938 120.863 60.0196C119.719 61.1441 118.228 62.0728 116.39 62.8045C119.579 64.5674 122.04 66.8315 123.775 69.598C125.509 72.3634 126.377 75.3972 126.377 78.6983C126.377 83.4617 124.6 87.6062 121.047 91.132C117.492 94.6579 113.315 96.4196 108.514 96.4196C103.714 96.4196 99.531 94.6579 95.9683 91.132C92.4045 87.6062 90.6232 83.4617 90.6232 78.6983C90.6232 75.3972 91.4908 72.3634 93.2249 69.598C94.9601 66.8315 97.4213 64.5674 100.61 62.8045ZM108.514 92.2566C112.284 92.2566 115.509 90.9396 118.191 88.3045C120.873 85.6693 122.214 82.4961 122.214 78.7825C122.214 75.0124 120.882 71.8057 118.219 69.1613C115.556 66.517 112.321 65.1954 108.514 65.1954C104.707 65.1954 101.467 66.517 98.7948 69.1613C96.1227 71.8057 94.7862 75.0124 94.7862 78.7825C94.7862 82.4961 96.1274 85.6693 98.8086 88.3045C101.491 90.9396 104.725 92.2566 108.514 92.2566Z" fill="#111111" stroke="#111111" stroke-width="3"/>
</g>
</svg>
