<svg width="189" height="162" viewBox="0 0 189 162" fill="none" xmlns="http://www.w3.org/2000/svg">
<path d="M94.5363 0L188.536 162H0.536255L94.5363 0Z" fill="#D1FBFF"/>
<g opacity="0.9">
<path d="M86.6095 62.8045C84.7717 62.0728 83.2807 61.1441 82.1366 60.0196C80.9924 58.8938 79.7273 57.0837 78.3388 54.5903L76.6796 51.6083C74.6356 47.9511 72.3288 46.1225 69.7593 46.1225H69V43H71.0533C74.7105 43 78.0197 45.5695 80.9832 50.7084L83.2623 54.6744C84.7809 57.3003 86.3653 59.1335 88.0164 60.174C89.6664 61.2144 91.8326 61.7352 94.5138 61.7352C97.1766 61.7352 99.3382 61.2144 100.999 60.174C102.658 59.1335 104.247 57.3003 105.767 54.6744L108.044 50.7084C111.008 45.5695 114.309 43 117.947 43H120V46.1225H119.269C116.68 46.1225 114.364 47.9511 112.32 51.6083L110.661 54.5903C109.273 57.0837 108.008 58.8938 106.863 60.0196C105.719 61.1441 104.228 62.0728 102.39 62.8045C105.579 64.5674 108.04 66.8315 109.775 69.598C111.509 72.3634 112.377 75.3972 112.377 78.6983C112.377 83.4617 110.6 87.6062 107.047 91.132C103.492 94.6579 99.3152 96.4196 94.5138 96.4196C89.7136 96.4196 85.531 94.6579 81.9684 91.132C78.4045 87.6062 76.6232 83.4617 76.6232 78.6983C76.6232 75.3972 77.4908 72.3634 79.2249 69.598C80.9602 66.8315 83.4213 64.5674 86.6095 62.8045ZM94.5138 92.2566C98.2839 92.2566 101.509 90.9396 104.191 88.3045C106.873 85.6693 108.214 82.4961 108.214 78.7825C108.214 75.0124 106.882 71.8057 104.219 69.1613C101.556 66.517 98.3208 65.1954 94.5138 65.1954C90.7069 65.1954 87.4668 66.517 84.7948 69.1613C82.1228 71.8057 80.7862 75.0124 80.7862 78.7825C80.7862 82.4961 82.1274 85.6693 84.8086 88.3045C87.491 90.9396 90.7253 92.2566 94.5138 92.2566Z" fill="#111111" stroke="#111111" stroke-width="3"/>
</g>
</svg>
