<svg width="188" height="162" viewBox="0 0 188 162" fill="none" xmlns="http://www.w3.org/2000/svg">
<path d="M94 0L188 162H0L94 0Z" fill="#DCCFE0"/>
<path d="M75.7651 80.3378C75.7651 81.2426 75.0315 81.9762 74.1267 81.9762C73.2219 81.9762 72.4883 81.2426 72.4883 80.3378V50.0144C72.4883 48.4627 71.7889 47.0439 70.6623 46.0083C69.5 44.94 67.8865 44.2768 66.1021 44.2768C65.1973 44.2768 64.4637 43.5432 64.4637 42.6384C64.4637 41.7336 65.1973 41 66.1021 41C68.7313 41 71.1301 41.9965 72.8766 43.6018C73.342 44.0297 73.7611 44.5005 74.1267 45.0074C74.4923 44.5005 74.9114 44.0297 75.3767 43.6018C77.1232 41.9965 79.5219 41 82.1511 41C84.7803 41 87.179 41.9965 88.9255 43.6018C89.3909 44.0297 89.81 44.5005 90.1756 45.0074C90.5411 44.5005 90.9603 44.0297 91.4256 43.6018C93.1721 41.9965 95.5708 41 98.2 41C100.829 41 103.228 41.9965 104.975 43.6018C106.757 45.2401 107.863 47.5094 107.863 50.0144V58.4848C110.199 56.031 112.548 54.9497 114.701 54.9124C117.91 54.8567 120.539 57.0366 122.06 60.4618C123.443 63.5761 123.909 67.783 122.982 72.1797C121.727 78.1272 117.944 84.4873 110.459 88.9922C110.575 89.1899 110.693 89.3858 110.815 89.5795C112.799 92.7411 115.58 95.3474 118.577 96.9216C119.376 97.3422 119.682 98.3307 119.262 99.1295C118.841 99.9282 117.852 100.235 117.054 99.8143C113.563 97.9811 110.338 94.9658 108.05 91.3202C107.889 91.0637 107.733 90.804 107.581 90.5413C105.2 91.6825 102.509 92.6521 99.4819 93.3987C98.6054 93.6142 97.7199 93.0784 97.5043 92.2019C97.2888 91.3253 97.8246 90.4399 98.7011 90.2243C101.492 89.5362 103.963 88.6453 106.142 87.6008C105.154 85.1657 104.586 82.5582 104.586 79.8996V50.0143C104.586 48.4626 103.887 47.0438 102.76 46.0082C101.598 44.9399 99.9841 44.2767 98.1998 44.2767C96.4157 44.2767 94.802 44.9399 93.6397 46.0082C92.5131 47.0439 91.8138 48.4626 91.8138 50.0143V80.3377C91.8138 81.2425 91.0802 81.9761 90.1754 81.9761C89.2706 81.9761 88.537 81.2425 88.537 80.3377V50.0143C88.537 48.4626 87.8376 47.0438 86.711 46.0082C85.5487 44.9399 83.9352 44.2767 82.1509 44.2767C80.3668 44.2767 78.7531 44.9399 77.5908 46.0082C76.4643 47.0439 75.7649 48.4626 75.7649 50.0143V80.3377L75.7651 80.3378ZM107.863 63.8346V79.8998C107.863 82.0008 108.288 84.071 109.034 86.0245C115.458 82.0569 118.708 76.6056 119.782 71.5142C120.565 67.7985 120.201 64.3105 119.078 61.7801C118.092 59.5606 116.539 58.1453 114.752 58.1762C112.785 58.2103 110.392 59.8591 107.863 63.8345L107.863 63.8346Z" fill="#111111" stroke="#111111" stroke-width="3"/>
</svg>
