<svg width="217" height="217" viewBox="0 0 217 217" fill="none" xmlns="http://www.w3.org/2000/svg">
<path d="M108.5 0L202.464 162.75H14.5362L108.5 0Z" fill="#DCCFE0"/>
<path d="M90.3013 80.3378C90.3013 81.2426 89.5677 81.9762 88.6629 81.9762C87.7581 81.9762 87.0245 81.2426 87.0245 80.3378V50.0144C87.0245 48.4627 86.3252 47.0439 85.1986 46.0083C84.0363 44.94 82.4227 44.2768 80.6384 44.2768C79.7336 44.2768 79 43.5432 79 42.6384C79 41.7336 79.7336 41 80.6384 41C83.2676 41 85.6664 41.9965 87.4129 43.6018C87.8782 44.0297 88.2973 44.5005 88.6629 45.0074C89.0285 44.5005 89.4476 44.0297 89.913 43.6018C91.6595 41.9965 94.0582 41 96.6874 41C99.3166 41 101.715 41.9965 103.462 43.6018C103.927 44.0297 104.346 44.5005 104.712 45.0074C105.077 44.5005 105.497 44.0297 105.962 43.6018C107.708 41.9965 110.107 41 112.736 41C115.365 41 117.764 41.9965 119.511 43.6018C121.293 45.2401 122.399 47.5094 122.399 50.0144V58.4848C124.735 56.031 127.084 54.9497 129.237 54.9124C132.446 54.8567 135.076 57.0366 136.597 60.4618C137.979 63.5761 138.445 67.783 137.518 72.1797C136.264 78.1272 132.48 84.4873 124.996 88.9922C125.111 89.1899 125.23 89.3858 125.351 89.5795C127.335 92.7411 130.116 95.3474 133.113 96.9216C133.912 97.3422 134.218 98.3307 133.798 99.1295C133.377 99.9282 132.389 100.235 131.59 99.8143C128.1 97.9811 124.874 94.9658 122.586 91.3202C122.425 91.0637 122.269 90.804 122.117 90.5413C119.736 91.6825 117.045 92.6521 114.018 93.3987C113.142 93.6142 112.256 93.0784 112.041 92.2019C111.825 91.3253 112.361 90.4399 113.237 90.2243C116.028 89.5362 118.499 88.6453 120.678 87.6008C119.69 85.1657 119.122 82.5582 119.122 79.8996V50.0143C119.122 48.4626 118.423 47.0438 117.296 46.0082C116.134 44.9399 114.52 44.2767 112.736 44.2767C110.952 44.2767 109.338 44.9399 108.176 46.0082C107.049 47.0439 106.35 48.4626 106.35 50.0143V80.3377C106.35 81.2425 105.616 81.9761 104.712 81.9761C103.807 81.9761 103.073 81.2425 103.073 80.3377V50.0143C103.073 48.4626 102.374 47.0438 101.247 46.0082C100.085 44.9399 98.4714 44.2767 96.6872 44.2767C94.9031 44.2767 93.2894 44.9399 92.1271 46.0082C91.0005 47.0439 90.3011 48.4626 90.3011 50.0143V80.3377L90.3013 80.3378ZM122.399 63.8346V79.8998C122.399 82.0008 122.824 84.071 123.57 86.0245C129.994 82.0569 133.244 76.6056 134.318 71.5142C135.101 67.7985 134.738 64.3105 133.614 61.7801C132.629 59.5606 131.075 58.1453 129.288 58.1762C127.321 58.2103 124.929 59.8591 122.399 63.8345L122.399 63.8346Z" fill="#111111" stroke="#111111" stroke-width="3"/>
</svg>
